<?xml version="1.0" encoding="utf-8"?>
<!-- Generator: Adobe Illustrator 16.0.0, SVG Export Plug-In . SVG Version: 6.00 Build 0)  -->
<!DOCTYPE svg PUBLIC "-//W3C//DTD SVG 1.1//EN" "http://www.w3.org/Graphics/SVG/1.1/DTD/svg11.dtd">
<svg version="1.1" xmlns="http://www.w3.org/2000/svg" xmlns:xlink="http://www.w3.org/1999/xlink" x="0px" y="0px" width="1600px"
	 height="1600px" viewBox="0 0 1600 1600" enable-background="new 0 0 1600 1600" xml:space="preserve">
<g id="Background" display="none">
	<rect x="-0.5" y="0.5" display="inline" fill="#FFFFFF" stroke="#000000" stroke-miterlimit="10" width="1600" height="1600"/>
</g>
<g id="Paw">
	<g id="Pad">
		<path id="Undamaged_1_" fill="#FFFFFF" d="M893.203,613.051c0,0-160.168-2.318-254.703,105.707c0,0-34.422,38.865-54.072,141.303
			c0,0-4.222,10.157-6.96,62.63c-2.74,52.473-21.286,85.992-36.851,101.173c0,0-91.041,89.882-119.619,152.235
			c0,0-33.005,40.244-17.221,170.053c0,0,10.677,116.597,131.304,125.234c0,0,45.663,13.758,158.697-42.211
			c0,0,82.525-39.899,85.185-41.274c2.659-1.373,82.437-43.107,102.076-41.653c0,0,18.939-3.474,37.929-3.34
			c0,0,52.953,0.451,61.744,0.004c8.792-0.453,128.086-4.193,128.086-4.193s99.554-8.154,139.691-27.096
			c0,0,62.606-21.983,91.846-62.164c0,0,46.33-42.458,33.031-143.447c0,0,6.94-82.655-71.372-149.502
			c0,0-30.134-26.13-69.496-38.344c0,0-42.746-16.288-90.929-73.966c0,0-31.534-34.5-54.442-108.518
			c0,0-10.881-38.793-38.611-66.925C1048.515,668.757,999.737,609.224,893.203,613.051z"/>
		<g>
			<path fill="#FF3333" d="M709,1166.187l-144.667-180.07c-7.014,17.5-15.754,30.111-23.733,37.893c0,0-29.461,29.098-60.13,65.663
				l97.503,117.24c1.345,1.617,2.026,3.653,2.026,5.757v254.722c0,0.985-0.104,1.932-0.397,2.818
				c25.571-4.502,62.935-15.548,114.112-40.889c0,0,6.285-3.006,15.285-7.393V1166.187z"/>
			<path fill="#FF3333" d="M516.786,1334.636c0-9.918-8.067-17.987-17.983-17.987c-9.917,0-17.984,8.069-17.984,17.987
				c0,9.915,8.068,17.981,17.984,17.981C508.719,1352.617,516.786,1344.551,516.786,1334.636z"/>
			<path fill="#FF3333" d="M1310.372,1030.57c0,9.918,8.066,17.986,17.98,17.986s17.979-8.068,17.979-17.986
				c0-9.916-8.065-17.983-17.979-17.983S1310.372,1020.654,1310.372,1030.57z"/>
			<path fill="#FF3333" d="M924.931,742.075c0-9.915-8.065-17.982-17.979-17.982c-9.918,0-17.987,8.067-17.987,17.982
				c0,9.917,8.069,17.984,17.987,17.984C916.865,760.059,924.931,751.992,924.931,742.075z"/>
			<path fill="#FF3333" d="M562,1467.391v-251.467l-93.206-112.081c-19.268,24.058-37.562,50.005-47.826,72.401
				c0,0-32.99,40.244-17.206,170.053c0,0,10.128,108.913,119.712,124.004L489,1432.958v-63.787
				c-15-4.37-26.044-18.193-26.044-34.535c0-19.844,16.074-35.987,35.916-35.987c19.841,0,36.086,16.144,36.086,35.987
				c0,17.118-11.958,31.473-27.958,35.092v56.17l41.062,44.441c0.749,0.808,1.241,1.718,1.639,2.679
				c3.854,0.039,8.415-0.119,13.911-0.627C562.654,1470.961,562,1469.241,562,1467.391z"/>
			<path fill="#FF3333" d="M1043.399,885.433c0,9.915,8.069,17.981,17.987,17.981c9.916,0,17.983-8.066,17.983-17.981
				c0-9.917-8.067-17.985-17.983-17.985C1051.469,867.447,1043.399,875.516,1043.399,885.433z"/>
			<path fill="#FF3333" d="M1371.191,1185.244c4.422-20.793,6.314-46.977,2.086-79.088c0,0,2.37-27.735-10.892-64.066
				c-3.879,11.449-13.518,20.332-25.331,23.351c0.059,0.415-0.055,0.835-0.055,1.266v84.523L1371.191,1185.244z"/>
			<path fill="#FF3333" d="M1069,850.336c14,3.043,24.436,13.664,27.48,27.664h76.618c-9.939-10-20.594-20.318-31.53-33.41
				c0,0-31.687-34.623-54.595-108.64c0,0-4.974-18.909-17.974-39.815V850.336z"/>
			<path fill="#FF3333" d="M816.998,1289.301c0-9.917-8.067-17.985-17.983-17.985s-17.983,8.068-17.983,17.985
				c0,9.918,8.067,17.987,17.983,17.987S816.998,1299.219,816.998,1289.301z"/>
			<path fill="#FF3333" d="M1024.696,1028.414c0-9.917-8.07-17.985-17.99-17.985c-9.914,0-17.98,8.068-17.98,17.985
				c0,9.916,8.066,17.983,17.98,17.983C1016.626,1046.397,1024.696,1038.33,1024.696,1028.414z"/>
			<path fill="#FF3333" d="M1365.688,1205.021l-42.496-42.32c-2.42-1.613-4.191-4.365-4.191-7.491v-88.504
				c0-0.431,0.217-0.851,0.275-1.266c-15.549-3.973-26.991-18.099-26.991-34.87c0-19.841,16.185-35.983,36.024-35.983
				c3.391,0,6.69,0.481,9.803,1.362c-9.374-13.218-21.19-26.544-36.129-39.295c0,0-30.129-25.885-69.491-38.099
				c0,0-15.256-6.556-37.816-22.556h-98.751c-4.37,14-18.194,25.659-34.537,25.659c-19.844,0-36.14-16.265-36.14-36.104
				c0-16.342,10.753-30.289,25.753-34.66V671.831c-1-0.987-1.688-1.965-2.638-2.929c0,0-48.701-59.533-155.235-55.706
				c0,0-160.13-2.318-254.665,105.707c0,0-34.403,38.865-54.053,141.303c0,0-4.213,10.157-6.951,62.63
				c-0.838,16.058-3.189,30.332-6.45,42.857L727,1159.851v253.369c23-11.249,50.457-24.395,51.963-25.174
				c0.539-0.278,4.037-2.214,10.037-5.11v-59.095c-15-4.372-25.936-18.196-25.936-34.54c0-19.843,16.125-35.985,35.967-35.985
				c19.841,0,36.008,16.143,36.008,35.985c0,17.122-12.039,31.479-28.039,35.099v49.634c26-12.456,61.746-28.553,74.071-27.641
				c0,0,7.696-1.416,18.223-2.404c-0.165-0.683-0.294-1.392-0.294-2.125V777.17c-13-3.044-24.103-14.17-27.146-27.17H727.778
				c-4.371,15-18.194,25.901-34.538,25.901c-19.842,0-35.984-16.142-35.984-35.982c0-19.842,16.143-35.983,35.984-35.983
				c17.12,0,31.475,12.064,35.095,28.064h144.076c4.371-15,18.195-25.905,34.54-25.905c19.839,0,35.965,16.141,35.965,35.981
				c0,16.343-10.916,30.166-25.916,34.536v565.251c0,0.404-0.021,0.8-0.073,1.189c0.675-0.004,1.356-0.005,2.032,0
				c0,0,53.142,0.451,61.933,0.004c1.705-0.088,7.108-0.3,16.108-0.584v-279.521c-15-4.369-26.09-18.193-26.09-34.537
				c0-19.843,16.049-35.985,35.889-35.985c19.844,0,36.128,16.143,36.128,35.985c0,17.118-11.927,31.474-27.927,35.094v278.365
				c38-1.252,93.981-3.01,93.981-3.01s99.462-8.154,139.599-27.096c0,0,21.789-7.669,45.691-22.223l-131.467-131.677
				c-2.419-1.613-3.805-4.365-3.805-7.491v-87.426c-15-4.37-26.141-18.194-26.141-34.537c0-19.843,16.026-35.985,35.87-35.985
				c19.839,0,36.154,16.143,36.154,35.985c0,17.119-11.884,31.475-27.884,35.094v82.889l132.742,132.976
				c11.502-8.395,22.396-18.345,30.708-29.769c0,0,15.005-13.815,25.488-44.408
				C1365.875,1205.136,1365.749,1205.083,1365.688,1205.021z M664.098,822.66c19.841,0,35.975,16.143,35.975,35.983
				c0,17.121-12.072,31.478-28.072,35.097V928h92v-22.944v-11.316c-16-3.62-28.007-17.976-28.007-35.096
				c0-19.841,16.169-35.983,36.011-35.983s35.943,16.143,35.943,35.983c0,16.345-10.947,30.169-25.947,34.539v11.873v40.88v32.791
				c16,4.006,27.039,18.108,27.039,34.842c0,19.842-16.116,35.983-35.958,35.983c-19.841,0-36.024-16.142-36.024-35.983
				c0-16.733,11.943-30.836,26.943-34.842V946H654v-52.818c-15-4.371-25.896-18.194-25.896-34.538
				C628.104,838.803,644.256,822.66,664.098,822.66z"/>
			<path fill="#FF3333" d="M675.256,739.918c0,9.915,8.068,17.981,17.984,17.981s17.984-8.066,17.984-17.981
				c0-9.917-8.068-17.984-17.984-17.984S675.256,730.001,675.256,739.918z"/>
			<path fill="#FF3333" d="M1186.593,1028.414c0-9.917-8.065-17.985-17.979-17.985c-9.918,0-17.987,8.068-17.987,17.985
				c0,9.916,8.069,17.983,17.987,17.983C1178.527,1046.397,1186.593,1038.33,1186.593,1028.414z"/>
			<path fill="#FF3333" d="M790.015,858.644c0-9.916-8.067-17.983-17.983-17.983c-9.917,0-17.984,8.067-17.984,17.983
				c0,9.917,8.068,17.985,17.984,17.985C781.947,876.629,790.015,868.561,790.015,858.644z"/>
			<path fill="#FF3333" d="M755.125,1013.568c0,9.916,8.067,17.983,17.983,17.983c9.917,0,17.984-8.067,17.984-17.983
				c0-9.915-8.068-17.981-17.984-17.981C763.192,995.587,755.125,1003.653,755.125,1013.568z"/>
			<path fill="#FF3333" d="M664.098,876.629c9.916,0,17.983-8.068,17.983-17.985c0-9.916-8.067-17.983-17.983-17.983
				c-9.917,0-17.984,8.067-17.984,17.983C646.113,868.561,654.181,876.629,664.098,876.629z"/>
		</g>
	</g>
	<g id="Finger_1">
		<path id="Undamaged_2_" fill="#FFFFFF" d="M233.286,618.587c0,0-38.154-6.269-73.867,53.125c0,0-29.659,35.817-6.222,151.088
			c0,0,33.72,170.047,154.794,184.051c0,0,71.679,10.244,116.056-6.875c0,0,62.687-13.879,79.996-80.982
			c0,0,16.562-85.361-22.083-123.393c0,0-27.274-30.373-56.709-44.042c-29.437-13.668-91.496-62.19-98.259-72.881
			C320.229,667.987,297.401,619.392,233.286,618.587z"/>
		<g>
			<path fill="#FF3333" d="M307.888,797.16c0,9.916,8.067,17.984,17.983,17.984c9.917,0,17.984-8.068,17.984-17.984
				s-8.068-17.983-17.984-17.983C315.955,779.177,307.888,787.244,307.888,797.16z"/>
			<path fill="#FF3333" d="M434,936v-52.672c-15-4.371-25.796-18.194-25.796-34.538c0-19.841,16.197-35.983,36.039-35.983
				c19.841,0,35.902,16.143,35.902,35.983c0,17.121-12.145,31.478-28.145,35.097V918h52.165c1.446-8,14.431-86.61-22.209-122.668
				c0,0-27.25-30.352-56.684-44.021C401.316,740.187,356,706.001,336,687.888v74.736c15,4.371,25.88,18.194,25.88,34.537
				c0,19.842-16.155,35.984-35.997,35.984s-35.965-16.143-35.965-35.984c0-17.12,12.081-31.475,28.081-35.094v-98.223
				c-13-18.208-37.322-44.89-84.694-45.484c0,0-38.167-6.269-73.879,53.125c0,0-29.665,35.817-6.228,151.089
				c0,0,33.717,170.047,154.791,184.05c0,0,32.93,4.704,67.968,2.406L208.862,833.197c-0.003-0.004-0.007-0.008-0.011-0.012
				c-0.191-0.202-0.373-0.412-0.541-0.631c-0.026-0.033-0.046-0.069-0.072-0.104c-0.136-0.182-0.267-0.367-0.385-0.559
				c-0.061-0.1-0.111-0.202-0.167-0.303c-0.072-0.131-0.148-0.259-0.213-0.393c-0.059-0.123-0.104-0.248-0.155-0.372
				c-0.048-0.118-0.102-0.233-0.144-0.354c-0.051-0.146-0.089-0.294-0.13-0.442c-0.028-0.102-0.063-0.201-0.087-0.305
				c-0.051-0.221-0.087-0.443-0.116-0.666c-0.004-0.033,0.097-0.066,0.093-0.1c-0.03-0.263,0.064-0.525,0.064-0.788
				c0-0.005,0-0.01,0-0.015V751.6c-15-3.827-26.015-15.931-26.015-30.24c0-17.374,16.087-31.509,35.929-31.509
				c19.84,0,36.064,14.135,36.064,31.509c0,14.99-11.979,27.56-27.979,30.729v73.218l172.262,181.383
				c9.482-1.532,18.603-3.807,26.837-6.983c0,0,51.547-11.706,74.042-63.706H434z"/>
			<path fill="#FF3333" d="M234.84,721.36c0-8.683-8.066-15.748-17.981-15.748c-9.917,0-17.984,7.065-17.984,15.748
				s8.068,15.746,17.984,15.746C226.774,737.106,234.84,730.043,234.84,721.36z"/>
			<path fill="#FF3333" d="M462.28,848.79c0-9.916-8.067-17.983-17.983-17.983c-9.917,0-17.984,8.067-17.984,17.983
				c0,9.917,8.068,17.985,17.984,17.985C454.213,866.775,462.28,858.707,462.28,848.79z"/>
		</g>
	</g>
	<g id="Finger_2">
		<path id="Undamaged_4_" fill="#FFFFFF" d="M553.016,195.102c0,0-57.004-3.23-104.956,45.509c0,0-49.273,52.864-63.088,134.039
			c0,0-17.063,70.752-2.434,131.891c0,0,6.488,36.846,30.709,62.044c0,0,26.063,31.916,56.733,49.773
			c0,0,41.891,27.103,93.79,30.284c0,0,38.058,4.563,71.698-19.624c0,0,28.948-18.665,43.593-51.451
			c0,0,12.306-22.412,13.509-53.131c0,0,4.798-57.81-6.871-94.65c0,0-5.45-28.085-22.811-53.498c0,0-23.535-30.999-24.859-72.54
			c0,0-1.26-44.828-18.143-76.208c0,0-4.941-15.219-25.275-25.222C594.611,202.318,583.326,194.948,553.016,195.102z"/>
		<g>
			<path fill="#FF3333" d="M571.475,320.165c0-9.914-8.068-17.979-17.984-17.979c-9.915,0-17.982,8.065-17.982,17.979
				c0,9.917,8.067,17.985,17.982,17.985C563.407,338.15,571.475,330.082,571.475,320.165z"/>
			<path fill="#FF3333" d="M662.889,376.287c0,0-23.535-30.999-24.86-72.54c0,0-1.259-44.828-18.143-76.208
				c0,0-4.941-15.219-25.274-25.222c0,0-11.286-7.37-41.596-7.216c0,0-57.122-3.23-105.073,45.509c0,0-5.943,6.149-13.943,17.465
				v114.574c16,3.619,28.179,17.975,28.179,35.094c0,19.842-16.083,35.984-35.924,35.984c-19.842,0-36.072-16.143-36.072-35.984
				c0-16.342,10.817-30.166,25.817-34.536v-86.541c-12,22.592-25.123,52.596-31.145,87.982c0,0-17.004,70.855-2.375,131.994
				c0,0,0.547,2.356,1.741,7.356h183.662c2.625-9,8.658-16.612,16.603-21.2l-33.179-136.671
				c-18.826-1.134-33.796-16.831-33.796-35.938c0-19.839,16.142-35.992,35.982-35.992c19.842,0,35.984,16.134,35.984,35.973
				c0,14.295-8.379,26.665-20.483,32.467l32.852,135.267c0.192-0.003,0.382-0.015,0.575-0.015c19.841,0,35.983,16.142,35.983,35.983
				c0,19.842-16.142,36.086-35.983,36.086c-17.118,0-31.473-11.959-35.093-27.959H390.256c4.741,11,12.054,25.309,22.992,36.688
				c0,0,26.063,31.865,56.733,49.722c0,0,41.89,27.077,93.79,30.258c0,0,38.058,4.551,71.698-19.637
				c0,0,28.949-18.671,43.593-51.458c0,0,12.306-22.415,13.509-53.134c0,0,4.798-57.812-6.871-94.652
				C685.699,429.787,680.249,401.7,662.889,376.287z"/>
			<path fill="#FF3333" d="M408.329,407.745c0,9.917,8.068,17.984,17.984,17.984c9.916,0,17.982-8.068,17.982-17.984
				c0-9.916-8.067-17.983-17.982-17.983C416.397,389.762,408.329,397.829,408.329,407.745z"/>
			<path fill="#FF3333" d="M602.418,541.857c9.916,0,17.983-8.068,17.983-17.984c0-9.916-8.067-17.983-17.983-17.983
				s-17.983,8.067-17.983,17.983C584.436,533.789,592.502,541.857,602.418,541.857z"/>
		</g>
	</g>
	<g id="Finger_3">
		<path id="Undamaged" fill="#FFFFFF" d="M845.108,105.751c0,0-34.854,18.967-33.187,109.427c0,0,3.135,28.51,1.693,44.723
			c0,0-3.326,33.003-6.354,46.374c0,0-5.713,15.028-7.542,53.679c0,0-2.742,53.357-2.053,67.26c0,0,0.517,38.078,7.207,52.296
			c0,0,10.469,32.357,41.174,46.097c0,0,48.178,26.406,91.946,19.14c0,0,61.878-4.395,108.807-52.143
			c0,0,64.3-54.773,51.712-146.771c0,0-2.671-54.323-30.701-106.32c0,0-39.202-89.263-77.229-112.152
			c0,0-29.545-25.981-71.603-32.199C918.979,95.162,870.521,88.403,845.108,105.751z"/>
		<g>
			<path fill="#FF3333" d="M895.502,371.665c0,9.917,8.067,17.985,17.983,17.985c9.914,0,17.979-8.068,17.979-17.985
				c0-9.916-8.065-17.983-17.979-17.983C903.569,353.682,895.502,361.749,895.502,371.665z"/>
			<path fill="#FF3333" d="M1018,456.834v-86.098c-15-4.47-25.58-18.219-25.58-34.449c0-19.841,16.149-35.982,35.99-35.982
				c19.843,0,35.977,16.142,35.977,35.982c0,17.231-12.387,31.665-28.387,35.167v76.837l29.204,23.827
				c17.918-23.786,41.356-67.413,33.301-126.285c0,0-2.667-54.323-30.698-106.32c0,0-39.2-89.263-77.228-112.152
				c0,0-29.544-25.981-71.602-32.199c0,0-48.456-6.759-73.869,10.589c0,0-34.854,18.967-33.187,109.426
				c0,0,3.135,28.51,1.693,44.723c0,0-3.326,33.004-6.354,46.374c0,0-5.713,15.234-7.542,53.885c0,0-0.03,0.841-0.083,1.841h79.311
				c3.476-12,12.931-21.45,24.879-24.785L870.185,192.96c-15.619-3.923-27.22-18.131-27.22-34.952
				c0-19.841,16.141-36.007,35.98-36.007c19.841,0,35.983,16.128,35.983,35.968c0,16.493-11.157,30.414-26.317,34.648
				l33.643,144.153c15.614,3.926,27.211,18.079,27.211,34.896c0,19.842-16.141,36.191-35.979,36.191
				c-17.118,0-31.474-11.857-35.094-27.857H798.8c-0.724,16-1.547,39.071-1.134,47.42c0,0,0.517,37.974,7.207,52.193
				c0,0,10.469,32.306,41.174,46.046c0,0,48.178,26.38,91.946,19.115c0,0,61.878-4.408,108.807-52.157c0,0,2.668-2.292,6.826-6.708
				L1018,456.834z"/>
			<path fill="#FF3333" d="M896.929,157.957c0-9.915-8.067-17.981-17.983-17.981c-9.914,0-17.98,8.066-17.98,17.981
				c0,9.917,8.066,17.984,17.98,17.984C888.861,175.941,896.929,167.874,896.929,157.957z"/>
			<path fill="#FF3333" d="M1046.403,336.288c0-9.916-8.068-17.982-17.986-17.982c-9.916,0-17.983,8.067-17.983,17.982
				c0,9.917,8.067,17.984,17.983,17.984C1038.335,354.272,1046.403,346.204,1046.403,336.288z"/>
		</g>
	</g>
	<g id="Finger_4">
		<path id="Undamaged_3_" fill="#FFFFFF" d="M1360.359,345.294c0,0-54.53-7.303-105.22,85.259c0,0-10.96,34.127-27.662,47.286
			c0,0-43.158,41.94-72.224,86.359c0,0-20.589,26.429-28.218,67.995c0,0-3.778,31.742-2.992,38.916c0,0,2.177,38.945,12.111,55.406
			c0,0,13.375,44.031,50.563,52.865c0,0,71.286,17.561,126.617,4.151c0,0,52.108-11.329,96.699-61.905
			c0,0,34.295-28.835,47.438-85.684c0,0,18.856-44.061,17.048-119.609c0,0,0.787-73.325-34.208-118.771
			C1440.313,397.563,1405.892,346.16,1360.359,345.294z"/>
		<g>
			<path fill="#FF3333" d="M1471.252,478.853l-57.062,90.44c2.987,5.418,4.536,11.541,4.437,17.894
				c-0.15,9.611-4.035,18.588-10.938,25.276c-6.75,6.54-15.642,10.141-25.038,10.141c-9.827,0-19.004-3.886-25.842-10.942
				c-6.689-6.899-10.291-15.993-10.141-25.604c0.151-9.61,4.035-18.586,10.937-25.276c6.749-6.541,15.642-10.143,25.04-10.143
				c6.729,0,13.152,1.823,18.729,5.236l64.578-102.353c-5.026-18.921-12.997-38.974-25.638-55.39c0,0-34.422-51.403-79.954-52.269
				c0,0-54.53-7.303-105.22,85.259c0,0-10.96,34.161-27.662,47.32c0,0-15.897,15.558-34.893,37.558h33.757
				c3.619-16,17.974-28.097,35.092-28.097c19.843,0,35.809,16.125,35.809,35.967c0,17.12-12.242,31.459-28.242,35.079v145.676
				c16,3.619,28.242,17.975,28.242,35.095c0,19.842-16.055,35.984-35.897,35.984c-19.84,0-36.113-16.143-36.113-35.984
				c0-16.343,10.769-30.167,25.769-34.537V558.391c-11-3.435-20.666-12.391-24.1-24.391h-49.212
				c-7.762,10-15.499,20.202-22.435,30.801c0,0-20.589,26.412-28.218,67.979c0,0-3.778,31.733-2.992,38.907
				c0,0,2.177,38.941,12.111,55.402c0,0,13.375,44.028,50.563,52.863c0,0,71.286,17.56,126.617,4.15c0,0,52.108-11.33,96.699-61.906
				c0,0,34.295-28.835,47.438-85.684c0,0,18.856-44.062,17.048-119.609C1474.521,516.903,1474.694,500.722,1471.252,478.853z"/>
			<path fill="#FF3333" d="M1243.453,739.72c0,9.917,8.066,17.984,17.98,17.984c9.918,0,17.986-8.068,17.986-17.984
				s-8.068-17.984-17.986-17.984C1251.52,721.735,1243.453,729.803,1243.453,739.72z"/>
			<path fill="#FF3333" d="M1382.644,568.638c-4.696,0-9.141,1.8-12.513,5.068c-3.449,3.343-5.391,7.83-5.466,12.633
				c-0.075,4.802,1.725,9.346,5.067,12.794c3.419,3.528,8.006,5.47,12.917,5.47c4.695,0,9.14-1.8,12.513-5.068
				c3.45-3.342,5.391-7.828,5.466-12.631c0.076-4.803-1.724-9.348-5.067-12.798C1392.144,570.58,1387.557,568.638,1382.644,568.638z
				"/>
			<path fill="#FF3333" d="M1279.42,523.854c0-9.917-8.068-17.984-17.986-17.984c-9.914,0-17.98,8.068-17.98,17.984
				s8.066,17.984,17.98,17.984C1271.352,541.838,1279.42,533.77,1279.42,523.854z"/>
		</g>
	</g>
</g>
</svg>
